<?xml version="1.0" encoding="utf-8"?>
<!-- Generator: Adobe Illustrator 16.0.0, SVG Export Plug-In . SVG Version: 6.00 Build 0)  -->
<!DOCTYPE svg PUBLIC "-//W3C//DTD SVG 1.1//EN" "http://www.w3.org/Graphics/SVG/1.1/DTD/svg11.dtd">
<svg version="1.1" id="Layer_1" xmlns="http://www.w3.org/2000/svg" xmlns:xlink="http://www.w3.org/1999/xlink" x="0px" y="0px"
	 width="20.215px" height="10.324px" viewBox="0 0 20.215 10.324" enable-background="new 0 0 20.215 10.324" xml:space="preserve">
<g>
	<path fill="#577DDD" stroke="#275BC4" stroke-width="0.25" stroke-miterlimit="10" d="M0.125,7.896V0.125h0.839v7.388h2.879v0.384
		H0.125z"/>
	<path fill="#577DDD" stroke="#275BC4" stroke-width="0.25" stroke-miterlimit="10" d="M6.735,2.607
		c1.367,0,2.471,1.319,2.471,2.698c0,1.427-0.839,2.711-2.471,2.711c-1.379,0-2.482-1.319-2.482-2.711
		C4.253,3.891,5.093,2.607,6.735,2.607z M6.735,7.752c0.924,0,1.703-0.839,1.703-2.447c0-1.595-0.779-2.435-1.703-2.435
		c-0.936,0-1.715,0.84-1.715,2.435C5.021,6.913,5.8,7.752,6.735,7.752z"/>
	<path fill="#577DDD" stroke="#275BC4" stroke-width="0.25" stroke-miterlimit="10" d="M13.6,10.199V7.705
		c-0.264,0.144-0.684,0.312-1.247,0.312c-1.403,0-2.387-1.211-2.387-2.567c0-1.571,0.791-2.842,2.435-2.842
		c0.731,0,1.343,0.384,1.679,1.031l-0.264,0.228c-0.288-0.66-0.804-0.996-1.451-0.996c-0.972,0-1.631,0.78-1.631,2.639
		c0,1.295,0.636,2.243,1.763,2.243c0.552,0,0.983-0.324,1.104-0.492V5.522h0.768v4.677H13.6z"/>
	<path fill="#577DDD" stroke="#275BC4" stroke-width="0.25" stroke-miterlimit="10" d="M17.619,2.607
		c1.367,0,2.471,1.319,2.471,2.698c0,1.427-0.84,2.711-2.471,2.711c-1.379,0-2.482-1.319-2.482-2.711
		C15.137,3.891,15.977,2.607,17.619,2.607z M17.619,7.752c0.924,0,1.703-0.839,1.703-2.447c0-1.595-0.779-2.435-1.703-2.435
		c-0.936,0-1.715,0.84-1.715,2.435C15.904,6.913,16.684,7.752,17.619,7.752z"/>
</g>
</svg>
